<svg id="visual" viewBox="0 0 900 600" width="900" height="600" xmlns="http://www.w3.org/2000/svg" xmlns:xlink="http://www.w3.org/1999/xlink" version="1.1"><rect x="0" y="0" width="900" height="600" fill="#8c65ff"></rect><path d="M223 600L217.7 585.7C212.3 571.3 201.7 542.7 217.3 514.2C233 485.7 275 457.3 285.2 428.8C295.3 400.3 273.7 371.7 267.8 343C262 314.3 272 285.7 272.3 257C272.7 228.3 263.3 199.7 259.7 171.2C256 142.7 258 114.3 252 85.8C246 57.3 232 28.7 225 14.3L218 0L900 0L900 14.3C900 28.7 900 57.3 900 85.8C900 114.3 900 142.7 900 171.2C900 199.7 900 228.3 900 257C900 285.7 900 314.3 900 343C900 371.7 900 400.3 900 428.8C900 457.3 900 485.7 900 514.2C900 542.7 900 571.3 900 585.7L900 600Z" fill="#cfbbff"></path><path d="M486 600L465 585.7C444 571.3 402 542.7 412.2 514.2C422.3 485.7 484.7 457.3 488.5 428.8C492.3 400.3 437.7 371.7 405 343C372.3 314.3 361.7 285.7 389.5 257C417.3 228.3 483.7 199.7 486.8 171.2C490 142.7 430 114.3 418.3 85.8C406.7 57.3 443.3 28.7 461.7 14.3L480 0L900 0L900 14.3C900 28.7 900 57.3 900 85.8C900 114.3 900 142.7 900 171.2C900 199.7 900 228.3 900 257C900 285.7 900 314.3 900 343C900 371.7 900 400.3 900 428.8C900 457.3 900 485.7 900 514.2C900 542.7 900 571.3 900 585.7L900 600Z" fill="#ded0ff"></path><path d="M657 600L663.7 585.7C670.3 571.3 683.7 542.7 661.7 514.2C639.7 485.7 582.3 457.3 573.5 428.8C564.7 400.3 604.3 371.7 618 343C631.7 314.3 619.3 285.7 609.8 257C600.3 228.3 593.7 199.7 589 171.2C584.3 142.7 581.7 114.3 569.2 85.8C556.7 57.3 534.3 28.7 523.2 14.3L512 0L900 0L900 14.3C900 28.7 900 57.3 900 85.8C900 114.3 900 142.7 900 171.2C900 199.7 900 228.3 900 257C900 285.7 900 314.3 900 343C900 371.7 900 400.3 900 428.8C900 457.3 900 485.7 900 514.2C900 542.7 900 571.3 900 585.7L900 600Z" fill="#e8dfff"></path><path d="M701 600L699.3 585.7C697.7 571.3 694.3 542.7 689.8 514.2C685.3 485.7 679.7 457.3 690.7 428.8C701.7 400.3 729.3 371.7 740.2 343C751 314.3 745 285.7 734 257C723 228.3 707 199.7 704.2 171.2C701.3 142.7 711.7 114.3 706 85.8C700.3 57.3 678.7 28.7 667.8 14.3L657 0L900 0L900 14.3C900 28.7 900 57.3 900 85.8C900 114.3 900 142.7 900 171.2C900 199.7 900 228.3 900 257C900 285.7 900 314.3 900 343C900 371.7 900 400.3 900 428.8C900 457.3 900 485.7 900 514.2C900 542.7 900 571.3 900 585.7L900 600Z" fill="#eee7ff"></path></svg>